<?xml version="1.0" standalone="no"?>
<!DOCTYPE svg PUBLIC "-//W3C//DTD SVG 20010904//EN"
 "http://www.w3.org/TR/2001/REC-SVG-20010904/DTD/svg10.dtd">
<svg version="1.0" xmlns="http://www.w3.org/2000/svg"
 width="602.000000pt" height="600.000000pt" viewBox="0 0 602.000000 600.000000"
 preserveAspectRatio="xMidYMid meet">
<metadata>
Created by potrace 1.16, written by Peter Selinger 2001-2019
</metadata>
<g transform="translate(0.000000,600.000000) scale(0.100000,-0.100000)"
fill="#000000" stroke="none">
<path d="M3620 5027 c-137 -41 -275 -127 -484 -302 -129 -106 -261 -205 -275
-205 -5 0 -22 -11 -38 -24 -39 -33 -180 -103 -223 -111 -19 -4 -72 -17 -116
-31 -45 -13 -90 -24 -100 -25 -26 -1 -157 -149 -208 -234 -46 -77 -81 -157
-100 -232 l-12 -48 -47 -3 c-34 -2 -50 -8 -57 -23 -10 -17 -7 -19 34 -19 25 0
48 -4 51 -10 3 -5 21 -10 40 -10 25 0 40 -8 59 -31 14 -17 26 -39 26 -49 0
-11 6 -23 13 -27 7 -4 18 -20 24 -35 10 -22 19 -28 43 -28 l30 0 0 89 c0 49 4
101 10 115 9 24 14 26 69 26 48 0 65 -5 88 -23 25 -21 36 -23 96 -19 45 3 72
0 82 -8 10 -9 15 -9 15 -1 0 6 11 11 24 11 13 0 29 6 35 14 6 8 32 17 56 20
25 4 47 11 50 17 4 5 26 9 50 9 24 0 47 5 51 11 8 14 140 7 155 -8 6 -6 9 -39
7 -74 l-3 -64 -40 -5 -40 -6 60 -13 c87 -18 85 -16 85 -61 l0 -40 56 0 c47 0
57 -3 61 -20 7 -25 11 -25 34 3 14 17 18 39 19 96 0 66 3 77 30 110 27 35 28
39 14 59 -10 14 -26 22 -44 22 -16 0 -35 7 -44 15 -24 24 -92 45 -201 61 -181
28 -188 28 -209 5 -11 -12 -24 -21 -31 -21 -6 0 -32 -13 -58 -30 -37 -23 -59
-30 -98 -30 -42 0 -51 3 -58 23 l-9 22 -10 -26 c-7 -18 -20 -28 -42 -33 -54
-10 -109 -7 -140 9 -29 15 -30 18 -30 88 0 62 3 77 23 97 12 14 30 42 39 62
13 30 29 44 70 63 30 14 72 25 96 25 31 0 42 4 42 15 0 11 11 15 39 15 33 0
40 4 43 23 3 19 10 22 55 25 41 2 59 -2 82 -19 26 -19 41 -21 120 -20 60 1
110 9 147 22 32 10 65 19 76 19 13 0 18 8 18 30 0 23 4 30 20 30 13 0 20 7 20
18 0 11 9 27 20 37 17 16 32 17 137 11 174 -10 183 -12 183 -47 0 -25 4 -29
28 -29 29 0 46 -13 97 -74 17 -19 36 -36 43 -36 8 0 26 -8 40 -18 29 -21 105
-42 147 -42 15 0 39 -9 55 -20 15 -11 51 -25 80 -31 29 -6 61 -20 72 -31 20
-20 20 -19 57 7 56 38 96 116 95 185 -1 68 -31 195 -50 211 -8 6 -14 28 -14
49 0 32 -20 89 -49 140 -5 8 -21 41 -35 73 -15 31 -40 72 -56 91 -17 18 -30
38 -30 44 0 21 -137 129 -204 161 -89 44 -156 49 -256 18z"/>
<path d="M3803 3859 c-6 -6 -47 -13 -92 -16 -50 -4 -85 -11 -92 -19 -7 -9 -34
-14 -75 -14 -62 0 -90 -14 -63 -31 8 -5 31 -9 51 -9 l37 0 3 -106 3 -106 40
-14 c22 -7 52 -14 68 -14 26 0 27 2 27 49 l0 49 43 8 42 8 -40 6 -40 5 -3 60
c-3 56 -1 63 28 90 30 29 34 30 130 30 93 0 98 1 83 18 -12 13 -32 17 -78 17
-33 0 -66 -5 -72 -11z"/>
<path d="M3074 3186 c-11 -8 -43 -22 -72 -31 -29 -10 -52 -21 -52 -26 0 -5
-15 -9 -32 -9 -53 0 -102 -18 -131 -47 -23 -24 -26 -38 -29 -103 l-3 -75 -62
-3 -63 -3 0 -40 c0 -22 -7 -54 -16 -71 l-16 -31 -76 7 c-43 3 -88 7 -101 9
-19 1 -26 -4 -31 -23 -3 -15 -14 -26 -26 -28 -22 -3 -26 -10 -66 -99 l-23 -53
-48 0 c-60 0 -72 -12 -99 -92 -31 -95 -129 -238 -200 -294 -13 -10 -33 -34
-43 -51 l-19 -33 34 -35 c19 -19 43 -35 55 -35 12 0 34 -13 50 -30 16 -16 37
-30 47 -30 10 0 71 -53 136 -117 64 -65 147 -142 185 -172 37 -30 67 -58 67
-62 0 -3 14 -12 31 -19 17 -7 48 -37 70 -67 22 -29 43 -53 47 -53 4 0 15 -13
25 -29 9 -16 29 -32 44 -36 16 -3 44 -21 63 -39 19 -19 48 -36 63 -39 l29 -5
-6 52 c-2 28 -8 68 -12 89 -3 20 -3 57 1 82 5 36 10 45 26 45 11 0 22 7 25 15
4 8 12 15 19 15 7 0 15 7 19 15 4 11 21 15 66 15 105 0 170 -55 170 -144 0
-29 6 -48 19 -60 18 -16 19 -15 26 20 3 20 12 46 20 58 7 12 15 53 18 93 3 40
11 81 16 92 6 11 11 57 11 102 l0 83 43 41 c23 22 73 75 110 118 64 72 67 78
52 94 -18 17 -33 18 -142 7 -47 -4 -70 -2 -94 10 -18 9 -48 16 -66 16 -55 0
-153 64 -153 100 0 26 -22 40 -63 40 -64 0 -106 31 -148 110 -41 77 -64 160
-64 235 l0 70 63 0 c52 0 63 3 68 19 6 17 14 18 100 13 l93 -5 3 56 3 57 58 3
57 3 0 38 c0 31 5 40 25 49 37 17 102 15 158 -5 47 -17 47 -17 47 -63 0 -26 2
-49 5 -52 3 -2 18 -3 35 0 29 4 30 6 30 60 0 47 4 60 27 84 l26 27 -27 11
c-15 5 -56 10 -91 10 -35 0 -90 7 -122 16 -32 9 -70 18 -85 21 -37 7 -59 34
-65 82 -6 45 -9 47 -39 27z"/>
<path d="M3740 3121 c0 -22 -4 -43 -10 -46 -15 -10 -12 -21 15 -53 22 -27 25
-39 25 -116 0 -96 -7 -106 -74 -106 -25 0 -36 -4 -36 -15 0 -12 15 -15 74 -15
92 0 100 -8 94 -90 l-4 -60 29 0 c24 0 28 3 21 18 -5 9 -10 59 -12 109 -3 86
-1 96 25 142 26 47 27 53 15 98 -10 39 -24 59 -80 110 -37 35 -70 63 -74 63
-5 0 -8 -18 -8 -39z"/>
<path d="M3140 2632 c0 -62 43 -92 149 -106 52 -7 179 3 154 11 -7 3 -13 20
-13 39 0 34 -1 34 -44 34 -25 0 -47 4 -50 9 -3 4 -28 6 -55 3 -60 -5 -101 3
-101 22 0 12 -20 26 -36 26 -2 0 -4 -17 -4 -38z"/>
<path d="M1540 2069 c-51 -31 -80 -60 -80 -80 0 -14 -55 -46 -211 -124 -117
-58 -242 -125 -278 -149 -52 -33 -239 -164 -260 -182 -11 -9 207 -294 226
-294 7 0 13 -7 13 -16 0 -26 250 -274 276 -274 15 0 25 -8 31 -25 24 -71 417
-328 673 -439 25 -10 53 -23 62 -28 10 -4 23 -8 29 -8 6 0 25 -6 42 -14 102
-46 370 -116 442 -116 29 0 55 -4 57 -9 7 -21 148 -31 451 -31 205 0 317 4
317 10 0 6 31 10 73 10 101 0 467 88 485 117 4 5 28 13 54 16 26 4 56 11 65
16 10 5 29 13 43 18 14 5 54 24 90 41 36 18 69 32 74 32 15 0 221 122 324 192
69 48 102 76 102 89 0 13 7 19 21 19 30 0 79 38 79 61 0 10 7 19 15 19 9 0 15
9 15 24 0 36 -48 183 -65 200 -8 8 -15 26 -15 40 0 14 -4 28 -10 31 -5 3 -10
14 -10 23 -1 26 -51 116 -92 165 -20 24 -62 61 -94 82 -84 56 -370 185 -562
254 -92 33 -219 80 -282 105 -137 53 -134 55 -131 -81 2 -78 0 -93 -13 -93
-13 0 -16 -15 -16 -82 0 -138 -33 -227 -117 -315 -35 -38 -60 -54 -93 -63 -25
-6 -74 -21 -110 -33 -53 -18 -87 -22 -185 -21 -125 0 -199 15 -280 54 -23 11
-48 20 -57 20 -26 0 -77 29 -258 148 -427 281 -465 309 -645 482 -55 53 -111
103 -125 111 -19 13 -25 27 -30 67 l-5 52 -35 -21z"/>
</g>
</svg>
