<?xml version="1.0" standalone="no"?>
<!DOCTYPE svg PUBLIC "-//W3C//DTD SVG 20010904//EN"
 "http://www.w3.org/TR/2001/REC-SVG-20010904/DTD/svg10.dtd">
<svg version="1.0" xmlns="http://www.w3.org/2000/svg"
 width="600.000000pt" height="598.000000pt" viewBox="0 0 600.000000 598.000000"
 preserveAspectRatio="xMidYMid meet">
<metadata>
Created by potrace 1.16, written by Peter Selinger 2001-2019
</metadata>
<g transform="translate(0.000000,598.000000) scale(0.100000,-0.100000)"
fill="#000000" stroke="none">
<path d="M3560 5067 c-41 -13 -102 -37 -135 -54 -75 -39 -234 -151 -345 -244
-106 -89 -267 -209 -279 -209 -5 0 -22 -11 -38 -24 -46 -39 -184 -105 -240
-116 -29 -5 -84 -20 -123 -33 -42 -14 -71 -19 -73 -13 -3 10 -122 -110 -165
-168 -63 -84 -125 -217 -151 -321 -10 -40 -11 -40 -58 -40 l-48 0 -28 -55
c-40 -81 -44 -157 -18 -321 32 -192 59 -289 79 -282 14 6 14 4 -1 -17 -18 -26
-24 -75 -8 -65 5 3 16 -4 24 -15 7 -11 17 -17 20 -13 4 3 7 1 7 -5 0 -6 9 -14
20 -17 11 -3 20 -13 20 -20 0 -25 -22 -28 -52 -5 -28 20 -29 21 -19 2 45 -85
172 -96 189 -18 3 17 5 36 3 41 -2 6 -7 28 -10 49 -6 37 -7 38 -22 23 -9 -9
-25 -15 -35 -15 -11 1 -34 -2 -52 -6 l-33 -8 3 71 c2 65 0 73 -30 115 -32 44
-31 73 1 35 10 -11 29 -19 47 -19 28 0 30 -3 28 -32 -2 -22 3 -34 16 -42 11
-6 28 -19 38 -28 10 -10 30 -18 46 -17 26 0 26 1 4 9 -20 8 -21 13 -11 31 9
18 7 26 -10 50 -23 31 -27 64 -10 75 6 3 18 22 26 42 12 28 12 43 3 84 -9 36
-16 48 -27 44 -9 -4 -19 5 -28 27 -7 17 -16 35 -20 38 -13 14 -77 -15 -86 -38
-5 -13 -17 -23 -28 -23 -20 0 -30 -32 -32 -99 0 -34 -1 -34 -10 -12 -15 38
-13 100 5 166 24 86 47 145 55 145 11 0 31 -42 29 -60 -3 -38 4 -58 21 -63 32
-8 42 12 26 49 -16 40 -5 52 27 30 12 -9 19 -16 15 -16 -5 0 -1 -7 7 -16 9 -8
16 -29 16 -46 0 -22 4 -29 14 -25 9 4 16 -3 20 -19 4 -14 13 -27 20 -30 8 -3
12 -14 9 -25 -3 -10 0 -19 6 -19 5 0 8 6 5 14 -3 9 6 17 25 24 18 6 31 7 31 2
0 -5 7 -7 16 -3 9 3 21 -3 30 -16 8 -11 25 -21 38 -21 24 0 61 32 50 43 -8 8
14 37 28 37 6 0 8 -7 5 -14 -4 -10 -1 -13 9 -9 12 4 13 1 4 -23 -12 -30 -6
-59 10 -49 5 3 10 2 10 -3 0 -6 -7 -13 -16 -16 -9 -4 -13 -2 -8 5 4 7 2 10 -5
8 -7 -3 -12 -8 -11 -13 1 -5 -4 -13 -12 -17 -10 -7 -10 -9 2 -9 8 -1 2 -7 -14
-13 l-30 -13 22 -22 c12 -12 22 -24 22 -26 0 -5 -53 -20 -63 -17 -5 1 -5 -4
-1 -11 17 -28 13 -71 -9 -90 -12 -11 -17 -17 -10 -14 20 11 42 -5 37 -27 -2
-11 2 -25 9 -30 8 -6 6 -7 -5 -3 -10 3 -18 1 -18 -4 0 -5 -12 -10 -27 -12 -18
-2 -29 -10 -31 -22 -3 -13 0 -16 10 -10 7 5 21 7 31 6 9 -2 17 2 17 7 0 6 11
11 25 11 18 0 25 5 25 20 0 22 15 27 26 8 5 -7 3 -8 -6 -3 -9 5 -10 2 -5 -14
11 -36 15 -82 5 -76 -4 3 -6 -3 -3 -14 2 -10 -1 -21 -9 -24 -18 -6 -17 -59 1
-65 8 -3 11 0 8 5 -3 5 3 9 13 10 18 2 18 1 2 -16 -9 -10 -21 -15 -27 -12 -5
2 -4 -3 4 -12 12 -15 11 -17 -4 -17 -15 0 -16 -2 -4 -17 12 -15 12 -16 -3 -10
-12 4 -21 0 -28 -13 -12 -22 -2 -59 10 -40 4 7 13 9 19 5 17 -10 -18 -35 -38
-27 -11 4 -13 0 -9 -16 4 -12 2 -25 -3 -28 -5 -3 -9 -14 -9 -25 0 -11 -5 -17
-10 -14 -6 4 -8 10 -5 15 3 5 -3 13 -12 19 -17 10 -17 10 2 12 16 0 14 3 -10
14 -31 14 -57 9 -34 -6 11 -7 10 -9 -4 -9 -10 0 -15 -5 -12 -10 4 -6 11 -7 17
-4 6 4 8 -1 4 -14 -6 -17 -3 -19 14 -15 11 3 20 0 20 -6 0 -6 -11 -11 -25 -11
-23 0 -24 -2 -15 -20 11 -21 -1 -60 -19 -60 -5 0 -7 -13 -6 -29 2 -20 -2 -28
-10 -25 -18 7 -35 44 -37 84 -3 40 -17 60 -36 53 -9 -4 -12 10 -9 61 2 36 1
66 -2 66 -4 0 -5 25 -4 55 0 30 -3 55 -7 55 -12 0 -17 -342 -6 -358 6 -8 5
-17 -2 -24 -9 -9 -12 -7 -13 8 0 10 -12 -17 -27 -61 -30 -89 -103 -213 -154
-261 -97 -92 -119 -120 -111 -140 3 -8 -1 -14 -11 -14 -9 0 -16 -4 -16 -10 0
-5 4 -10 8 -10 5 0 9 -7 9 -16 0 -11 -7 -14 -21 -10 -19 4 -19 3 3 -12 13 -9
42 -36 65 -58 22 -23 51 -45 64 -49 12 -3 22 -9 22 -13 0 -4 11 -20 25 -37
l25 -30 -21 38 c-12 20 -28 41 -37 46 -9 5 -14 13 -10 16 6 6 24 -11 69 -63 6
-8 19 -10 32 -6 12 3 19 3 14 -2 -9 -10 32 -54 52 -55 11 0 12 -2 4 -6 -31
-12 -11 -23 42 -24 15 0 17 -2 6 -9 -12 -7 -12 -11 -2 -24 7 -9 17 -14 21 -11
5 3 11 -3 14 -12 7 -22 84 -103 98 -103 5 0 6 4 3 10 -3 5 -1 10 5 10 7 0 10
-6 7 -14 -3 -8 4 -21 16 -29 12 -8 42 -35 67 -59 25 -24 50 -43 56 -41 5 2 25
-13 44 -32 19 -19 29 -35 24 -35 -6 0 -15 5 -22 12 -7 7 -12 9 -12 6 0 -4 20
-27 45 -52 39 -40 46 -43 54 -28 10 16 10 16 11 -1 0 -10 -7 -20 -15 -23 -8
-4 -12 -10 -9 -15 3 -5 9 -7 14 -4 5 3 11 1 15 -5 3 -5 19 -7 35 -3 20 3 30 1
30 -6 0 -7 -4 -9 -10 -6 -5 3 -10 1 -10 -5 0 -7 8 -9 20 -5 13 4 20 2 20 -7 0
-19 57 -48 109 -55 25 -3 51 -9 56 -14 6 -4 30 -12 53 -18 l43 -9 -21 36 c-17
27 -18 37 -8 43 7 4 9 11 5 15 -3 4 -13 1 -22 -6 -9 -7 -18 -10 -22 -6 -3 3 0
6 7 6 7 0 10 3 7 7 -4 3 -1 13 5 21 10 11 8 17 -7 28 -10 8 -13 14 -6 14 7 0
9 5 6 10 -3 6 -1 10 6 10 8 0 9 3 0 13 -6 8 -8 17 -4 20 3 4 1 7 -5 7 -7 0
-12 5 -12 11 0 5 4 8 9 5 5 -4 12 0 14 6 4 10 8 9 16 -2 9 -13 11 -13 11 0 0
17 -19 40 -32 40 -4 0 -5 -7 -2 -15 4 -10 0 -15 -11 -15 -12 0 -15 5 -11 17 4
9 1 21 -6 26 -9 6 -7 7 6 3 14 -5 17 -2 12 11 -6 15 -4 14 14 -2 25 -23 57
-31 40 -10 -14 17 -21 55 -10 55 5 0 12 -5 15 -10 3 -6 1 -10 -6 -10 -7 0 -9
-3 -6 -7 4 -3 16 3 27 14 10 12 16 24 13 27 -4 3 -1 6 5 6 5 0 13 -6 15 -12 4
-10 6 -10 6 0 1 19 18 14 24 -8 4 -17 11 -20 34 -15 15 3 22 3 16 -1 -10 -4
-9 -11 2 -28 8 -12 12 -26 8 -31 -5 -4 -3 -5 4 -1 6 3 14 2 17 -3 3 -5 0 -11
-8 -14 -19 -8 -13 -57 8 -73 10 -7 17 -16 17 -21 0 -4 7 -7 14 -7 11 1 12 -3
4 -19 -10 -18 -9 -19 15 -15 14 3 26 1 26 -3 0 -5 5 -9 11 -9 5 0 7 5 3 11 -4
8 -1 8 14 0 14 -8 19 -17 15 -29 -4 -13 -3 -14 6 -6 6 6 13 33 14 60 2 27 6
54 10 61 4 6 1 14 -5 17 -7 4 -3 4 9 2 17 -3 22 2 26 28 2 17 -1 34 -7 38 -8
6 -8 10 1 16 8 5 11 27 9 59 -2 34 1 54 9 57 7 2 15 18 18 36 5 20 11 29 18
24 9 -5 10 1 5 22 -4 16 -11 30 -16 32 -5 2 -7 17 -3 33 4 21 2 29 -8 29 -11
0 -11 2 1 10 8 5 11 10 5 10 -5 0 7 11 28 25 20 14 37 30 37 36 0 6 5 7 10 4
6 -3 10 -1 10 6 0 7 6 19 14 28 96 107 143 150 215 198 110 74 264 229 258
261 -3 18 2 24 27 31 17 5 25 10 17 10 -12 1 -12 4 1 19 8 9 25 40 39 67 13
28 29 53 34 57 6 5 6 8 -1 8 -7 0 -14 9 -17 20 -3 12 -14 20 -29 21 -17 1 -18
3 -5 6 21 6 22 36 2 53 -9 7 -13 15 -10 18 3 3 0 11 -6 18 -15 18 -2 69 26
102 12 15 23 30 23 35 1 4 6 23 11 43 7 27 6 47 -4 77 -8 22 -12 44 -9 48 2 4
0 10 -6 14 -5 3 -10 15 -10 26 0 11 -7 19 -17 19 -9 0 -14 3 -10 6 7 8 -17 34
-32 34 -6 0 -11 5 -11 10 0 6 -8 10 -17 10 -15 0 -16 2 -3 10 9 6 10 10 3 10
-15 0 -95 54 -113 75 -7 8 -32 25 -56 37 -57 28 -76 14 -41 -28 73 -87 62
-148 -31 -181 -47 -16 -61 -16 -92 0 -26 14 -112 15 -142 2 -11 -4 -18 -3 -18
3 0 6 -20 14 -45 18 -25 3 -48 10 -51 15 -3 5 -18 9 -33 9 -27 0 -61 26 -61
47 0 6 -5 13 -11 15 -6 2 -3 13 9 28 10 14 17 31 14 38 -3 10 4 12 31 8 26 -4
37 -2 41 10 8 22 8 26 -4 19 -5 -3 -22 1 -38 9 -28 14 -33 13 -113 -27 -46
-23 -90 -47 -97 -54 -7 -7 -29 -15 -50 -19 -20 -4 -41 -9 -47 -13 -5 -3 -19
-7 -30 -8 -10 -2 -22 -7 -25 -11 -3 -4 -12 -8 -20 -9 -8 -1 -26 -5 -40 -8 -14
-4 -35 -7 -47 -6 -12 0 -24 -3 -28 -8 -3 -5 5 -7 17 -4 21 4 20 2 -7 -21 -82
-70 -91 -80 -67 -74 12 4 20 2 17 -2 -3 -5 -20 -12 -37 -16 -38 -8 -57 -30
-50 -56 2 -10 -1 -18 -7 -18 -7 0 -10 -4 -6 -9 3 -5 -2 -16 -11 -25 -17 -18
-9 -40 11 -32 17 6 1 -55 -18 -69 -8 -5 -12 -17 -10 -25 3 -10 0 -9 -7 3 -8
13 -7 22 4 39 27 38 18 39 -21 2 -31 -30 -38 -33 -45 -20 -14 25 -18 56 -7 56
5 0 9 5 9 10 0 13 -37 13 -45 0 -3 -5 1 -20 10 -34 10 -15 12 -27 6 -30 -5 -4
-12 -2 -16 4 -4 6 -9 8 -13 6 -9 -6 -13 87 -4 100 4 6 16 16 27 23 l20 13 -20
-6 c-17 -5 -17 -3 4 14 13 11 21 23 18 27 -4 3 3 18 13 34 l20 28 -21 6 c-20
7 -19 8 11 35 23 21 30 34 26 48 -4 11 -2 23 4 27 6 3 8 11 5 16 -4 5 -1 9 5
9 6 0 9 4 5 9 -3 5 2 17 11 25 14 15 14 16 -3 13 -10 -1 -24 -7 -32 -11 -11
-7 -13 -5 -8 10 6 16 5 17 -5 4 -15 -18 -48 -25 -48 -10 0 5 5 10 10 10 6 0
10 6 10 14 0 8 6 17 13 19 9 4 8 8 -3 16 -13 10 -13 11 0 11 8 1 29 19 45 40
49 65 78 95 120 125 22 16 42 32 45 36 11 14 95 49 119 49 24 -1 25 -2 8 -14
-14 -11 -15 -15 -4 -19 8 -3 19 -1 24 4 6 6 26 3 54 -7 46 -16 111 -19 238 -9
68 5 73 4 68 -14 -9 -36 53 -67 81 -39 7 7 12 8 12 3 0 -12 60 56 61 69 0 6 0
42 0 79 0 54 4 72 20 88 10 10 19 26 19 34 0 8 6 15 14 15 9 0 13 -7 11 -20
-2 -11 0 -20 6 -20 5 0 9 5 9 11 0 5 5 7 12 3 16 -10 59 -14 53 -4 -3 4 2 10
10 14 8 3 14 0 12 -7 -1 -7 4 -11 12 -9 11 2 12 0 3 -10 -13 -16 -14 -27 -15
-118 -1 -65 18 -124 32 -101 4 6 15 9 24 5 9 -3 15 -9 12 -14 -2 -4 17 -7 43
-8 26 0 63 -3 82 -6 78 -15 154 0 194 37 11 9 27 17 35 17 12 0 12 3 3 12 -10
10 -19 10 -44 0 -17 -6 -34 -9 -37 -7 -2 3 1 5 8 5 9 0 8 4 -3 15 -9 9 -34 15
-66 15 -68 0 -56 15 24 30 67 13 111 8 161 -18 34 -17 83 -18 98 -3 8 8 3 11
-15 11 -20 0 -32 10 -49 36 -32 53 -124 93 -201 89 -67 -3 -73 6 -28 49 34 31
82 37 175 22 40 -7 46 -10 30 -17 -20 -8 -20 -8 1 -8 11 -1 25 -6 32 -13 9 -9
12 -9 12 1 0 7 5 9 10 6 6 -3 10 -1 10 4 0 6 -4 11 -10 11 -5 0 -10 4 -10 10
0 5 6 9 13 7 7 -1 11 6 9 18 -2 11 -4 25 -4 32 -1 7 -7 14 -15 17 -7 3 -13 12
-13 21 0 28 -82 86 -94 66 -3 -4 -42 -8 -86 -9 -45 0 -87 -5 -94 -11 -7 -6
-30 -12 -52 -13 -21 -2 -42 -7 -46 -13 -4 -5 -14 -3 -25 6 -21 18 -57 14 -49
-6 8 -21 -49 -38 -65 -19 -13 16 -33 8 -23 -9 5 -8 3 -8 -7 1 -24 22 -79 12
-60 -12 6 -7 4 -16 -4 -23 -10 -9 -14 -5 -20 20 -4 18 -7 36 -6 40 1 5 -9 8
-21 7 -49 -4 -78 0 -75 12 1 7 -24 21 -58 33 -33 11 -63 25 -67 30 -5 6 -11 5
-16 -3 -7 -10 -15 -10 -37 -2 -28 11 -97 21 -162 24 -18 0 -33 4 -33 9 0 4 -9
7 -21 7 -12 0 -19 5 -16 13 2 7 16 11 34 9 17 -2 34 2 38 8 5 9 1 10 -13 6
-19 -6 -20 -4 -12 24 5 16 6 30 2 30 -4 0 0 5 8 11 12 8 10 9 -7 4 -12 -3 -24
-1 -28 5 -3 6 3 10 14 10 23 0 27 10 10 27 -9 9 -6 10 11 6 16 -4 21 -3 16 5
-5 8 0 12 13 12 25 0 26 -8 5 -38 -18 -26 -7 -30 12 -4 12 15 12 15 7 -5 -4
-19 -1 -23 18 -23 21 1 22 2 9 13 -23 18 -23 38 0 44 11 3 20 9 20 14 0 5 5 9
10 9 18 0 11 -30 -7 -31 -10 0 -5 -5 11 -9 17 -6 36 -5 45 0 9 5 12 10 7 10
-5 0 -3 6 4 14 6 8 17 13 25 10 7 -3 16 -1 19 5 4 5 18 7 32 5 21 -4 25 -2 20
11 -4 13 -1 15 14 10 10 -3 29 -1 41 5 26 15 70 20 63 9 -3 -5 0 -9 5 -9 6 0
11 4 11 9 0 5 3 16 6 25 4 11 1 16 -10 16 -9 0 -16 -4 -16 -10 0 -5 -7 -7 -15
-4 -11 5 -12 11 -4 25 5 11 7 23 4 28 -7 13 26 19 52 10 17 -6 26 -3 38 14
l15 21 0 -21 c0 -29 27 -37 34 -11 4 17 8 19 20 9 10 -8 16 -9 21 -1 4 6 14 2
25 -12 11 -13 19 -17 20 -10 0 14 30 17 30 2 0 -15 -63 -29 -77 -17 -8 5 -13
6 -13 0 0 -5 -18 -8 -40 -7 -33 2 -39 -1 -29 -12 11 -13 88 -12 111 2 5 3 20
-4 33 -16 20 -18 27 -21 39 -11 11 9 15 9 18 -1 4 -10 8 -10 21 1 20 16 22 8
6 -21 -13 -24 1 -37 41 -39 20 0 21 -2 7 -7 -16 -7 -16 -9 5 -26 20 -17 22
-17 33 -2 11 14 13 14 18 2 3 -8 1 -17 -6 -20 -7 -2 -3 -5 9 -5 11 -1 24 -5
30 -11 5 -5 25 -11 44 -12 19 -2 38 -7 41 -11 3 -4 23 -9 45 -10 24 -2 38 -7
37 -14 -2 -7 3 -10 11 -7 8 3 17 0 21 -5 3 -6 11 -9 16 -6 5 4 12 0 15 -8 3
-8 14 -12 28 -10 34 7 79 -20 101 -61 16 -30 21 -33 26 -19 4 10 6 -9 6 -42
-1 -76 13 -185 24 -185 5 0 6 21 4 48 -16 143 -13 202 9 202 31 0 104 63 132
112 28 50 29 59 28 168 0 72 -6 133 -16 165 -9 28 -16 55 -18 60 -4 20 -19 40
-27 37 -4 -2 -9 2 -12 9 -2 8 2 10 12 6 14 -5 14 -1 3 36 -13 40 -36 94 -55
127 -4 8 -25 50 -46 92 -22 43 -47 80 -57 84 -10 3 -15 10 -12 16 12 18 -124
134 -205 175 -72 36 -82 38 -181 40 -86 3 -118 -1 -180 -20z m-936 -970 c-3
-9 -10 -17 -16 -17 -5 0 -16 -7 -25 -15 -11 -12 -12 -19 -4 -29 6 -7 8 -22 4
-31 -4 -13 -3 -16 6 -10 7 4 11 18 8 31 -4 24 6 33 18 15 8 -14 -16 -61 -32
-61 -8 0 -12 -4 -8 -10 8 -13 -17 -50 -33 -50 -18 0 -43 -26 -40 -41 2 -6 -3
-14 -11 -17 -9 -3 -11 0 -6 8 6 10 2 11 -19 6 -15 -4 -26 -2 -26 3 0 6 -6 8
-14 5 -7 -3 -16 2 -19 10 -4 9 -2 16 4 16 6 0 8 9 4 20 -4 11 -2 20 4 20 6 0
11 7 11 16 0 14 2 15 17 3 15 -12 16 -12 10 4 -4 9 -2 17 4 17 6 0 8 7 5 16
-3 8 -2 12 4 9 6 -3 10 2 10 12 0 26 19 43 50 43 17 0 21 3 12 9 -10 6 -8 10
10 14 12 4 33 7 46 7 12 0 22 5 22 11 0 5 -5 7 -12 3 -7 -5 -8 -3 -3 5 10 18
27 -2 19 -22z m361 -313 c9 3 19 -3 26 -16 8 -15 8 -18 0 -14 -6 4 -11 0 -11
-8 0 -11 -10 -16 -27 -17 -16 0 -37 -2 -48 -5 -31 -7 -67 -12 -96 -13 -14 0
-36 -10 -49 -21 -13 -11 -24 -20 -25 -20 -14 0 -65 24 -65 31 0 5 -10 9 -22 9
-17 0 -19 3 -10 12 9 9 17 9 34 1 13 -6 31 -11 40 -11 15 1 15 4 5 16 -10 13
-7 14 26 8 27 -5 37 -4 32 3 -4 7 4 11 19 11 13 0 26 6 29 13 3 10 9 10 26 0
11 -7 28 -13 38 -13 15 0 14 2 -3 15 -18 14 -17 14 14 9 29 -6 32 -4 25 12 -6
17 -5 17 10 5 9 -7 23 -11 32 -7z m-471 -161 c7 3 22 0 32 -7 11 -7 42 -14 69
-15 28 -2 52 -4 54 -6 1 -2 -16 -9 -39 -15 -50 -13 -78 -28 -100 -52 -16 -19
-60 -15 -60 5 0 6 -6 2 -14 -8 -8 -11 -12 -23 -10 -27 3 -5 -2 -8 -11 -8 -14
0 -14 3 -1 27 13 26 12 29 -13 51 -14 12 -19 20 -10 17 12 -4 18 1 23 19 6 26
33 38 53 23 7 -5 19 -7 27 -4z m264 -35 c-6 -30 -53 -56 -91 -49 -5 1 -6 -3
-2 -9 3 -5 -1 -10 -9 -10 -9 0 -16 -5 -16 -11 0 -5 -4 -8 -9 -4 -5 3 -12 1
-15 -4 -3 -4 -19 -11 -36 -15 -22 -4 -30 -11 -28 -23 2 -14 -3 -17 -21 -15
-15 2 -21 0 -17 -7 4 -6 5 -11 2 -11 -2 0 -12 -3 -22 -7 -12 -4 -15 -3 -10 5
12 19 -4 14 -30 -10 -13 -13 -24 -28 -24 -35 0 -6 -5 -15 -12 -19 -7 -4 -8 -3
-4 4 10 16 -7 15 -23 0 -11 -10 -10 -8 0 10 8 12 19 22 26 22 7 0 13 6 13 13
0 7 14 29 30 49 57 69 307 174 298 126z m852 -599 c0 -8 4 -8 15 1 16 13 39 4
29 -11 -7 -13 15 -41 27 -33 12 7 11 -13 -1 -37 -7 -13 -7 -19 0 -19 18 0 11
-29 -11 -41 -30 -16 -178 -4 -198 16 -14 14 -14 17 -1 25 8 5 11 10 6 10 -5 0
3 11 18 25 14 13 26 29 26 36 0 8 5 7 17 -2 15 -12 16 -12 10 3 -4 12 2 19 21
27 36 13 42 13 42 0z m-499 -185 c12 -14 14 -14 25 1 15 21 60 11 75 -17 10
-18 12 -18 23 -3 10 14 18 15 54 6 23 -7 42 -17 42 -23 0 -7 4 -7 13 0 17 13
86 20 90 8 2 -5 15 -1 31 9 19 13 30 15 38 7 7 -7 16 -7 28 0 14 9 22 8 34 -5
16 -16 22 -47 8 -47 -4 0 -12 -10 -17 -22 -6 -14 -19 -23 -32 -23 -12 0 -25
-4 -29 -8 -4 -4 -21 -7 -38 -8 -26 0 -28 -2 -11 -8 l20 -8 -20 -6 c-31 -8 -85
-7 -85 3 0 15 -40 22 -55 10 -9 -7 -15 -8 -20 0 -8 13 -45 13 -45 0 0 -19 -32
-10 -37 11 -3 12 -17 22 -34 26 -15 3 -30 12 -33 19 -5 12 -9 12 -26 2 -37
-24 -75 29 -56 78 7 19 40 18 57 -2z m-211 -103 c5 -8 16 -11 30 -6 15 5 20 4
16 -4 -4 -6 -2 -11 5 -11 8 0 9 -3 0 -13 -11 -14 -5 -27 11 -27 5 0 6 5 2 11
-4 8 1 9 17 4 31 -10 33 -11 25 -30 -3 -9 -10 -13 -16 -10 -5 3 -10 1 -10 -4
0 -6 -8 -11 -17 -12 -12 0 -14 -2 -5 -6 8 -3 27 4 43 16 23 17 33 19 49 11 24
-13 26 -30 5 -30 -8 0 -15 5 -15 10 0 6 -4 10 -10 10 -5 0 -10 -7 -10 -15 0
-8 -5 -15 -11 -15 -8 0 -8 -4 -1 -12 11 -14 -10 -43 -22 -31 -3 4 -6 1 -6 -5
0 -15 17 -15 26 -1 4 8 12 3 20 -12 13 -23 13 -23 14 -3 0 26 8 34 25 28 7 -3
12 -17 10 -30 -2 -18 1 -22 8 -15 7 7 16 4 28 -10 12 -14 19 -16 24 -8 6 8 9
8 15 -1 4 -7 25 -14 46 -15 22 -1 39 -3 39 -5 0 -3 49 -10 78 -11 9 0 17 -4
17 -10 0 -5 5 -9 10 -9 6 0 10 6 10 14 0 10 18 16 63 21 56 6 66 10 81 36 22
38 12 79 -19 79 -26 0 -52 25 -35 35 5 3 10 1 10 -4 0 -19 26 -12 68 19 23 17
50 30 61 30 10 0 35 11 56 25 27 19 40 23 50 15 13 -11 45 -4 45 11 0 21 16 7
18 -16 1 -14 -2 -25 -6 -25 -4 0 -7 -27 -7 -60 0 -47 3 -59 15 -57 9 1 14 -4
12 -13 -2 -11 2 -10 12 4 8 10 21 16 28 13 18 -6 16 -84 -2 -117 -11 -21 -11
-26 2 -34 14 -8 13 -12 -1 -38 -9 -15 -21 -26 -27 -24 -6 3 -11 -3 -10 -12 1
-10 -6 -16 -16 -16 -10 1 -18 -3 -18 -10 0 -6 -9 -22 -20 -36 -12 -15 -18 -18
-14 -7 10 27 -11 20 -24 -8 -6 -14 -15 -25 -19 -25 -5 0 -19 -10 -33 -23 -41
-36 -80 -58 -92 -51 -6 4 -8 3 -4 -4 3 -6 2 -13 -3 -16 -5 -3 -11 3 -14 14 -3
11 -1 23 4 26 5 3 9 11 9 17 0 7 -5 4 -11 -5 -13 -23 -61 -25 -53 -3 4 8 2 15
-2 16 -42 4 -72 13 -86 25 -15 14 -19 14 -42 -1 -14 -9 -29 -17 -33 -17 -4 0
-19 -6 -32 -12 -19 -8 -25 -8 -29 2 -2 6 -10 12 -17 12 -8 0 -19 8 -25 18 -8
12 -13 14 -17 4 -4 -10 -8 -10 -19 -1 -11 9 -18 8 -30 -2 -14 -11 -18 -11 -29
4 -7 9 -19 17 -27 17 -19 0 -68 52 -68 72 0 9 -14 28 -32 43 -30 25 -33 26
-45 10 -11 -16 -16 -16 -43 -5 -17 7 -38 26 -47 41 -10 16 -21 29 -25 29 -10
0 -44 74 -58 128 -6 23 -15 40 -19 37 -5 -2 -8 3 -7 13 2 27 25 37 40 16 7 -9
18 -14 23 -11 6 4 13 -7 17 -28 4 -19 16 -41 27 -49 12 -8 18 -19 14 -25 -3
-6 -1 -11 5 -11 7 0 9 -7 6 -16 -3 -8 -2 -13 3 -10 5 3 12 -1 15 -10 9 -23 7
-34 -5 -34 -5 0 -7 4 -4 10 3 6 -1 7 -9 4 -9 -3 -16 -10 -16 -16 0 -5 4 -7 9
-4 5 4 11 1 13 -6 3 -7 14 -9 31 -4 22 5 27 12 27 36 0 24 -4 30 -20 30 -20 0
-20 0 -2 20 12 13 17 30 14 45 -5 26 -16 32 -27 15 -3 -5 -11 -10 -18 -10 -8
0 -8 3 1 12 7 7 8 17 1 29 -7 15 -6 17 6 13 8 -4 15 -1 15 5 0 6 -6 11 -14 11
-9 0 -12 7 -9 19 3 10 0 22 -6 25 -6 4 -9 1 -8 -6 2 -7 2 -10 0 -5 -3 4 -9 5
-14 2 -5 -4 -6 1 -3 9 3 9 10 16 15 16 5 0 8 3 8 8 -4 23 26 26 41 3z"/>
<path d="M4625 4860 c-3 -5 -3 -52 1 -102 3 -51 7 -110 9 -131 3 -43 3 -44 29
-49 27 -4 36 37 34 152 -2 116 -9 140 -42 140 -14 0 -28 -4 -31 -10z"/>
<path d="M4695 4460 c-3 -5 -15 -10 -25 -10 -10 0 -21 -4 -24 -9 -8 -12 12
-480 24 -571 5 -41 16 -178 25 -305 8 -126 17 -266 20 -310 3 -44 14 -253 25
-465 11 -212 23 -401 26 -420 2 -19 9 -134 14 -255 5 -121 13 -278 19 -350 6
-71 17 -256 26 -410 8 -154 18 -315 21 -359 l6 -78 29 28 c27 28 28 32 31 159
2 72 -2 180 -9 240 -13 115 -24 251 -28 345 -9 220 -27 527 -30 538 -10 29
-35 492 -39 712 -7 366 -16 559 -32 635 -16 83 -21 130 -31 330 -13 243 -10
353 12 409 l18 48 -29 54 c-29 55 -38 62 -49 44z"/>
<path d="M1680 2155 c-8 -2 -49 -9 -90 -15 -41 -7 -87 -18 -101 -26 -45 -23
-89 -65 -89 -84 0 -15 -49 -44 -211 -125 -224 -112 -292 -152 -457 -273 -68
-49 -101 -79 -98 -89 15 -38 152 -229 242 -337 432 -517 1032 -856 1704 -962
136 -21 187 -24 420 -24 303 0 431 15 678 76 380 93 777 290 1065 529 71 59
75 69 67 165 -4 46 -57 195 -68 192 -7 -1 -12 10 -12 27 0 15 -10 53 -22 82
-44 108 -99 178 -185 235 -75 50 -369 185 -513 236 -63 22 -208 76 -322 119
-114 43 -211 79 -215 79 -9 0 -34 -100 -37 -143 -1 -12 4 -40 10 -63 7 -22 9
-46 4 -53 -4 -8 -10 -1 -14 20 -11 57 -19 22 -17 -75 3 -154 -30 -246 -121
-337 -55 -55 -88 -68 -281 -111 -55 -12 -182 5 -191 25 -3 9 -5 9 -5 0 -1 -6
-10 -9 -21 -6 -11 3 -17 9 -14 14 3 5 -3 6 -12 2 -13 -5 -15 -3 -9 7 5 8 4 11
-2 7 -25 -15 -183 58 -292 135 -31 21 -140 95 -244 163 -211 139 -297 207
-442 345 -56 52 -116 107 -134 122 -50 42 -41 74 29 111 30 15 56 30 59 33 5
4 -34 4 -59 -1z"/>
</g>
</svg>
